<svg width="119" height="118" viewBox="0 0 119 118" fill="none" xmlns="http://www.w3.org/2000/svg">
<path d="M9.47737 31.3539C8.0234 33.0114 7.77756 33.8633 8.61305 34.4431C9.03225 34.7132 9.12809 34.7122 9.83477 34.325C10.7254 33.8234 11.1503 33.3597 11.0148 33.0306C10.9606 32.8989 11.0941 32.3819 11.3371 31.8969C11.6769 31.1795 11.6943 30.9414 11.4919 30.5435C11.1346 29.863 10.608 30.0799 9.47737 31.3539Z" fill="black" fill-opacity="0.6"/>
<path d="M40.178 22.7522C39.2361 23.4096 36.7589 25.5269 36.3668 25.9771C36.2429 26.1436 36.1858 26.3789 36.2468 26.527C36.3688 26.8232 36.7009 26.648 38.6341 25.3129C39.2478 24.8869 40.6244 24.0697 41.696 23.4937C42.7512 22.9244 43.6708 22.3531 43.7289 22.2137C43.787 22.0743 43.7347 21.8071 43.6137 21.6067C43.4152 21.265 43.3194 21.266 42.2361 21.6736C41.604 21.9147 40.6737 22.4133 40.178 22.7522Z" fill="black" fill-opacity="0.6"/>
<path d="M49.8325 21.4706C49.8926 21.8501 50.1491 22.0524 51.3118 22.6322C52.0989 23.001 53.5346 23.7764 54.4989 24.3417C55.4796 24.9002 56.529 25.392 56.8301 25.4219C57.3528 25.4761 57.4022 25.4558 57.5038 25.0482C57.6277 24.5545 57.2714 23.9698 56.3778 23.2021C56.0477 22.9146 54.6459 22.2216 53.2683 21.634C51.1907 20.7958 50.6505 20.6525 50.2555 20.8152C49.877 20.9711 49.7792 21.1076 49.8325 21.4706Z" fill="black" fill-opacity="0.6"/>
<path d="M7.32692 42.8639C6.07344 46.0364 5.9119 48.355 6.95066 48.4469C7.49667 48.5107 7.67961 47.9734 7.80727 45.8998C7.87112 45.0266 8.12177 43.6722 8.40441 42.8629C8.67058 42.0603 8.83124 41.282 8.77024 41.1339C8.51947 40.5249 8.01997 41.1349 7.32692 42.8639Z" fill="black" fill-opacity="0.6"/>
<path d="M31.7337 32.5808C31.3843 32.9942 30.8015 33.8694 30.4114 34.5112C29.5373 35.9876 27.8744 39.8484 27.9964 40.1447C28.2133 40.6713 28.6818 40.2666 29.4088 38.9471C29.8308 38.1958 30.8356 36.5694 31.6361 35.335C33.244 32.8827 33.4995 32.3348 33.2342 31.9243C32.969 31.5139 32.4259 31.7375 31.7337 32.5808Z" fill="black" fill-opacity="0.6"/>
<path d="M59.1866 28.6672C59.1711 28.7698 59.36 29.7892 59.6195 30.9335C59.8722 32.0613 60.1647 33.8464 60.2741 34.86C60.5734 37.6432 60.8949 38.377 61.6848 38.0517C62.2115 37.8348 62.2966 36.7796 61.9828 34.5221C61.6739 32.4165 60.4432 28.7272 59.9514 28.4678C59.6058 28.2829 59.2234 28.3826 59.1866 28.6672Z" fill="black" fill-opacity="0.6"/>
<path d="M7.41757 51.7771C7.2898 52.2147 8.65696 56.0017 9.19623 56.7036C9.77228 57.448 10.5903 57.9388 11.0018 57.7693C11.479 57.5728 11.3599 57.2369 10.0781 55.3395C9.42359 54.3579 8.70714 53.1323 8.49703 52.6222C8.09038 51.6347 7.58405 51.2466 7.41757 51.7771Z" fill="black" fill-opacity="0.6"/>
<path d="M26.6077 46.5881C25.2186 48.4499 22.9951 52.7725 23.1849 53.2333C23.3679 53.6776 23.6602 53.4995 24.1704 52.635C24.726 51.6939 26.4839 49.0452 27.2109 48.0528C27.449 47.743 27.7636 47.1515 27.9281 46.7565C28.144 46.2057 28.142 46.014 27.9223 45.8543C27.4663 45.5416 27.325 45.619 26.6077 46.5881Z" fill="black" fill-opacity="0.6"/>
<path d="M13.3281 59.6794C13.4298 59.9262 15.3331 60.201 16.519 60.1361C17.4009 60.0809 17.8888 59.9569 18.8327 59.4912C20.0495 58.8939 21.0911 57.9644 20.942 57.6024C20.7387 57.1087 20.2769 57.2026 18.7948 58.0439C17.0301 59.0402 15.5838 59.5011 14.2652 59.5244C13.7066 59.5235 13.2942 59.5971 13.3281 59.6794Z" fill="black" fill-opacity="0.6"/>
<path d="M59.5749 47.0435C58.3805 51.8085 58.2877 53.0786 59.1299 53.3477C59.6372 53.5045 60.187 52.9701 60.37 52.1056C60.6884 50.5885 61.1576 45.3715 60.993 45.1121C60.8991 44.9775 60.6571 44.9039 60.446 44.9524C60.1295 45.025 59.962 45.4597 59.5749 47.0435Z" fill="black" fill-opacity="0.6"/>
<path d="M56.7461 59.43C55.6532 61.8242 54.9206 65.8408 55.2615 67.5098C55.4939 68.5882 56.0361 69.2504 56.5462 69.0402C57.1058 68.8098 57.2267 68.0286 57.0272 65.6277C56.8334 63.1475 56.9214 61.7254 57.385 59.8598C57.8264 58.0805 57.4769 57.8394 56.7461 59.43Z" fill="black" fill-opacity="0.6"/>
<path d="M54.3083 76.8334C52.6609 81.246 52.8849 87.6789 54.6622 86.947C55.2218 86.7165 55.274 86.0021 54.9215 83.5102C54.6067 81.1568 54.6638 79.9399 55.1544 77.4858C55.497 75.7471 55.4689 75.2582 54.9917 75.4548C54.8929 75.4954 54.5919 76.1199 54.3083 76.8334Z" fill="black" fill-opacity="0.6"/>
<path d="M101.293 60.4279C100.897 60.822 100.737 61.6003 100.953 62.127C101.17 62.6536 104.695 66.0717 107.035 68.0145C109.052 69.6863 109.131 69.3649 106.456 70.8133C105.542 71.3051 104.54 71.9102 104.212 72.1416C103.139 72.9491 102.926 74.1147 103.813 74.2114C104.471 74.2675 112.499 70.6725 112.683 70.2311C113.015 69.4014 112.761 69.0636 110.113 66.7471C108.695 65.5022 106.57 63.5671 105.392 62.4355C102.655 59.8093 102.154 59.5731 101.293 60.4279Z" fill="black" fill-opacity="0.6"/>
<path d="M94.584 66.9452C94.5986 67.4012 95.0701 67.6112 95.5967 67.3943C96.5347 67.008 97.9694 67.0331 99.4971 67.4241C101.094 67.8442 101.511 67.8267 101.714 67.3388C102.043 66.5488 100.774 65.8974 98.6741 65.7997C97.5531 65.7417 96.9655 65.8105 95.918 66.1648C94.7486 66.5502 94.5811 66.6577 94.584 66.9452Z" fill="black" fill-opacity="0.6"/>
<path d="M90.9431 70.6771C90.5646 71.1602 88.9308 75.933 88.5969 77.5526C88.263 79.1723 88.3705 79.6669 88.9968 79.5052C89.2737 79.4297 89.6986 78.6388 90.7314 76.1923C92.1776 72.7865 92.5473 71.4409 92.2046 70.8891C91.9354 70.4225 91.2335 70.3073 90.9431 70.6771Z" fill="black" fill-opacity="0.6"/>
<path d="M56.9183 92.986C56.7634 93.3577 57.6067 95.3587 58.4355 96.5765C59.331 97.863 60.1046 98.5261 61.2092 98.9181C62.5626 99.4002 64.1609 98.9344 64.0795 98.0825C64.0446 97.5772 63.8752 97.493 62.5276 97.2588C61.8819 97.1397 61.0667 96.9365 60.725 96.8077C59.8857 96.499 58.7926 95.2938 58.1081 93.9588C57.5281 92.831 57.1215 92.498 56.9183 92.986Z" fill="black" fill-opacity="0.6"/>
<path d="M87.4472 83.4542C86.3418 85.2568 85.8287 85.8338 84.3224 86.8969C83.3476 87.5678 83.1182 88.0858 83.64 88.3713C84.0621 88.6017 85.0825 88.1815 86.5694 87.1649C88.0466 86.1716 89.1541 84.8878 89.6826 83.5538C90.1404 82.422 90.1433 81.7279 89.6747 81.4782C89.0832 81.1636 88.5362 81.6583 87.4472 83.4542Z" fill="black" fill-opacity="0.6"/>
<path d="M69.5976 98.909C69.5889 99.0281 69.6432 99.1597 69.7526 99.1917C72.4264 99.842 75.2707 100.018 77.1246 99.6588C79.3114 99.2201 81.8564 97.5946 81.686 96.7601C81.6579 96.5984 81.4111 96.3729 81.1322 96.2567C80.6443 96.0534 80.5456 96.0941 78.0189 97.2502C74.6898 98.7944 72.9811 99.1324 70.5677 98.7405C69.6838 98.604 69.6441 98.6011 69.5976 98.909Z" fill="black" fill-opacity="0.6"/>
</svg>
