<svg width="445" height="652" viewBox="0 0 445 652" fill="none" xmlns="http://www.w3.org/2000/svg">
<path d="M12.0043 1.0001H414.004C430.573 1.0001 444.004 14.4316 444.004 31.0001V651.321H42.0043C25.4357 651.321 12.0043 637.89 12.0043 621.321V1.0001Z" fill="url(#paint0_linear_109_219)"/>
<path d="M102.058 542.208L102.058 458.74L150.296 458.74L150.296 542.208L102.058 542.208ZM211 537.872L211 601.828L21.3 601.828L21.3 447.629L69.538 447.629L69.538 537.872L211 537.872ZM211 454.901L21.3 371.975L21.3 309.103L211 226.177L211 292.301L51.652 353.547L51.652 328.615L211 389.861L211 454.901ZM177.938 405.579L131.868 389.319L131.868 302.057L177.938 285.797L177.938 405.579ZM215.336 120.515C215.336 135.691 212.987 149.783 208.29 162.791C203.412 175.618 196.547 186.82 187.694 196.395C178.841 205.79 168.363 213.107 156.258 218.346C144.153 223.585 130.784 226.205 116.15 226.205C101.516 226.205 88.1466 223.585 76.042 218.346C63.9373 213.107 53.4586 205.79 44.606 196.395C35.7533 186.82 28.9783 175.618 24.281 162.791C19.403 149.783 16.964 135.691 16.964 120.515C16.964 101.906 20.216 85.4656 26.72 71.193C33.224 56.7396 42.6186 44.8156 54.904 35.421L90.947 75.7999C83.901 81.4006 78.481 87.6336 74.687 94.4989C70.7123 101.184 68.725 108.772 68.725 117.263C68.725 123.948 69.809 130 71.977 135.42C74.145 140.84 77.3066 145.537 81.462 149.512C85.6173 153.306 90.676 156.287 96.638 158.455C102.419 160.623 108.923 161.707 116.15 161.707C123.377 161.707 129.971 160.623 135.933 158.455C141.714 156.287 146.683 153.306 150.838 149.512C154.993 145.537 158.155 140.84 160.323 135.42C162.491 130 163.575 123.948 163.575 117.263C163.575 108.772 161.678 101.184 157.884 94.4989C153.909 87.6336 148.399 81.4006 141.353 75.7999L177.396 35.4209C189.501 44.8156 198.895 56.7396 205.58 71.193C212.084 85.4656 215.336 101.906 215.336 120.515ZM439 591.732L298.893 591.732L298.893 647.287L249.3 647.287L249.3 472.221L298.893 472.221L298.893 527.776L439 527.776L439 591.732ZM443.336 367.471C443.336 396.558 435.477 419.232 419.759 435.492C404.041 451.752 382 459.882 353.635 459.882L249.3 459.882L249.3 395.926L351.738 395.926C366.191 395.926 376.489 393.306 382.632 388.067C388.594 382.828 391.575 375.782 391.575 366.929C391.575 357.896 388.594 350.85 382.632 345.791C376.489 340.552 366.191 337.932 351.738 337.932L249.3 337.932L249.3 275.06L353.635 275.06C382 275.06 404.041 283.19 419.759 299.45C435.477 315.71 443.336 338.384 443.336 367.471ZM439 245.743L249.3 245.743L249.3 193.169L373.147 117.289L373.147 144.931L249.3 71.2194L249.3 18.6454L439 18.1034L439 76.3684L337.104 76.9104L337.104 67.6964L421.927 118.102L421.927 146.286L337.104 198.86L337.104 187.478L439 187.478L439 245.743Z" fill="url(#paint1_linear_109_219)" fill-opacity="0.23"/>
<defs>
<linearGradient id="paint0_linear_109_219" x1="381.004" y1="651.321" x2="42.9778" y2="70.8853" gradientUnits="userSpaceOnUse">
<stop stop-color="#0871FC"/>
<stop offset="1" stop-color="#54AFFF"/>
</linearGradient>
<linearGradient id="paint1_linear_109_219" x1="412.853" y1="467.583" x2="160.38" y2="140.367" gradientUnits="userSpaceOnUse">
<stop stop-color="white"/>
<stop offset="1" stop-color="white" stop-opacity="0.26"/>
</linearGradient>
</defs>
</svg>
